# xmcd
#
# Track frame offsets:
#	150
#	15056
#	31847
#	50450
#	64831
#	84133
#	102727
#	119411
#	138066
#	156560
#	172562
#	190028
#
# Disc length: 2797 seconds
#
# Revision: 0
# Processed by: cddbd v1.4PL0 Copyright (c) Steve Scherf et al.
# Submitted via: dBpowerAMP V4.0
#
DISCID=880aeb0c
DTITLE=ธีรภัทร์ สัจจกุล - เพลงมันพาไป
DYEAR=2003
DGENRE=Blues
TTITLE0=ดีใหม
TTITLE1=ใจไม่รักดี
TTITLE2=อยากเป็นคนแรก
TTITLE3=เจ้าหญิงของฉัน
TTITLE4=โยนหินถามทาง
TTITLE5=เพลงมันพาไป
TTITLE6=ผ่าใจ
TTITLE7=คู่วิญญาณ
TTITLE8=ยิ่งนิ่งยิ่งใส
TTITLE9=หายไวไว
TTITLE10=Love is love
TTITLE11=ด้วยมือนี้(มือ)
EXTD=
EXTT0=
EXTT1=
EXTT2=
EXTT3=
EXTT4=
EXTT5=
EXTT6=
EXTT7=
EXTT8=
EXTT9=
EXTT10=
EXTT11=
PLAYORDER=
